<?xml version="1.0" encoding="utf-8"?>
<!-- Generator: Adobe Illustrator 20.0.0, SVG Export Plug-In . SVG Version: 6.00 Build 0)  -->
<svg version="1.1" id="Layer_1" xmlns="http://www.w3.org/2000/svg" xmlns:xlink="http://www.w3.org/1999/xlink" x="0px" y="0px"
	 viewBox="0 0 2802 338.2" style="enable-background:new 0 0 2802 338.2;" xml:space="preserve">
<style type="text/css">
	.st0{fill:none;}
	.st1{fill:#0E0E0E;}
	.st2{clip-path:url(#SVGID_2_);fill:#2AACE3;}
	.st3{clip-path:url(#SVGID_2_);fill:#006837;}
	.st4{clip-path:url(#SVGID_2_);}
	.st5{fill:#0071BC;}
</style>
<title>mario-3-art</title>
<path class="st0" d="M2660,338h0.2h-3.8C2657.6,338.3,2658.8,338.3,2660,338z"/>
<path class="st1" d="M2660.3,338h0.5C2660.6,338,2660.4,338,2660.3,338z"/>
<g>
	<defs>
		<rect id="SVGID_1_" y="0" width="2802" height="338.2"/>
	</defs>
	<clipPath id="SVGID_2_">
		<use xlink:href="#SVGID_1_"  style="overflow:visible;"/>
	</clipPath>
	<path class="st2" d="M476.2,152.7c-141.7,0-259.5,73.6-319.1,184.7h637.9C735.4,226.4,617.9,152.7,476.2,152.7L476.2,152.7z"/>
	<path class="st3" d="M1685.1,536c0.3,0.7,0.5,1.8,0.5,3.2v254c0,9.2-2.9,17.1-8.7,23.8c-5.8,6.7-12.7,10.1-20.6,10.1h-176V623.9
		H1363v203.2h-176c-7.9,0-14.8-3.3-20.6-10.1c-5.8-6.7-8.7-14.6-8.7-23.8v-254c0-0.3,0.1-0.9,0.2-1.6c0.2-0.7,0.2-1.2,0.2-1.6
		l263.5-250.9L1685.1,536L1685.1,536L1685.1,536z M1787.8,502.7l-28.4,39.2c-2.4,3.2-5.7,5.1-9.6,5.8h-1.4c-4,0-7.2-1.2-9.6-3.7
		l-317.1-305.4L1104.6,544c-3.7,2.8-7.3,4.1-11,3.7c-4-0.7-7.2-2.6-9.6-5.8l-28.4-39.2c-2.4-3.5-3.5-7.7-3.2-12.4
		c0.3-4.8,2-8.5,5-11.4l329.5-317c9.8-9.2,21.4-13.8,34.8-13.8c13.4,0,25,4.6,34.8,13.8l111.8,108V166.6c0-4.9,1.4-9,4.1-12.2
		c2.7-3.2,6.3-4.8,10.5-4.8h88c4.3,0,7.8,1.6,10.5,4.8c2.7,3.2,4.1,7.2,4.1,12.2v215.9l100.4,96.3c3.1,2.8,4.7,6.6,5,11.4
		C1791.3,495,1790.2,499.2,1787.8,502.7L1787.8,502.7z"/>
	<g class="st4">
		<path class="st5" d="M2440.5,357c0,4.1-1.5,7.5-4.4,10.5c-3,3-6.5,4.4-10.5,4.4c-4,0-7.5-1.5-10.5-4.4c-3-2.9-4.4-6.4-4.4-10.5
			c0-14.3-8.4-25.3-25.2-33.1c-16.8-7.8-33.3-11.7-49.4-11.7c-4,0-7.5-1.5-10.5-4.4c-3-2.9-4.4-6.4-4.4-10.5c0-4,1.5-7.5,4.4-10.5
			c3-2.9,6.4-4.4,10.5-4.4c15.5,0,31,2.5,46.4,7.5c15.4,5,28.9,13.4,40.6,25.2C2434.6,326.9,2440.5,340.9,2440.5,357L2440.5,357z
			 M2483.4,441c21.1-24.5,31.7-52.5,31.7-83.9c0-22.4-5.4-43.2-16.1-62.5c-10.7-19.3-24.7-35-42-47.3
			c-17.3-12.3-36.4-21.9-57.4-28.9s-42.2-10.5-63.7-10.5c-21.4,0-42.7,3.5-63.7,10.5s-40.1,16.6-57.4,28.9
			c-17.3,12.3-31.2,28.1-42,47.3c-10.7,19.3-16.1,40.1-16.1,62.5c0,31.4,10.6,59.4,31.7,83.9c3.1,3.4,7.8,8.6,14.2,15.4
			c6.4,6.8,11.1,12,14.2,15.4c39.8,47.6,61.7,93.9,65.7,139h106.3c4-45.1,26-91.4,65.7-139c3.1-3.4,7.8-8.5,14.2-15.4
			C2475.5,449.5,2480.2,444.4,2483.4,441L2483.4,441L2483.4,441z M2574.8,357c0,48.2-16,89.9-48,125c-14,15.2-25.6,28.8-34.7,40.6
			c-9.2,11.8-18.4,26.7-27.7,44.5c-9.3,17.9-14.6,34.6-15.9,50.1c14.6,8.7,21.9,21.5,21.9,38.2c0,11.5-3.9,21.5-11.7,29.8
			c7.8,8.4,11.7,18.4,11.7,29.8c0,16.2-7,28.8-21,37.8c4,7.2,6.1,14.5,6.1,21.9c0,14.3-4.9,25.4-14.7,33.1
			c-9.8,7.8-21.8,11.7-36.1,11.7c-6.2,13.7-15.6,24.5-28,32.6c-12.4,8.1-26,12.1-40.6,12.1c-14.6,0-28.1-4.1-40.6-12.1
			c-12.4-8.1-21.8-19-28-32.6c-14.3,0-26.3-3.9-36.1-11.7c-9.8-7.8-14.7-18.8-14.7-33.1c0-7.5,2-14.7,6.1-21.9
			c-14-9-21-21.6-21-37.8c0-11.5,3.9-21.5,11.7-29.8c-7.8-8.4-11.7-18.3-11.7-29.8c0-16.8,7.3-29.5,21.9-38.2
			c-1.2-15.5-6.5-32.2-15.9-50.1c-9.3-17.9-18.6-32.7-27.7-44.5c-9.2-11.8-20.8-25.3-34.7-40.6c-32-35.1-48-76.8-48-125
			c0-30.8,6.9-59.5,20.8-86c13.8-26.6,32-48.6,54.6-66.2c22.5-17.5,48-31.4,76.5-41.5c28.4-10.1,57.4-15.2,87-15.2
			c29.5,0,58.5,5.1,87,15.2c28.4,10.1,53.9,24,76.5,41.5c22.5,17.6,40.7,39.6,54.6,66.2C2567.8,297.6,2574.8,326.2,2574.8,357
			L2574.8,357z"/>
	</g>
</g>
</svg>
